<svg xmlns:dc="http://purl.org/dc/elements/1.1/" xmlns:cc="http://creativecommons.org/ns#" xmlns:rdf="http://www.w3.org/1999/02/22-rdf-syntax-ns#" xmlns:svg="http://www.w3.org/2000/svg" xmlns="http://www.w3.org/2000/svg" xmlns:sodipodi="http://sodipodi.sourceforge.net/DTD/sodipodi-0.dtd" xmlns:inkscape="http://www.inkscape.org/namespaces/inkscape" version="1.1" x="0px" y="0px" viewBox="0 0 100 125"><g transform="translate(0,-952.36218)"><path style="text-indent:0;text-transform:none;direction:ltr;block-progression:tb;baseline-shift:baseline;color:#000000;enable-background:accumulate;" d="m 55.9375,979.33889 a 3.0003,3.0003 0 0 0 -2.8125,2.1875 l -12,40.00001 a 3.0006988,3.0006988 0 0 0 5.75,1.7188 l 12,-40.00006 a 3.0003,3.0003 0 0 0 -2.9375,-3.90625 z m -20.0937,3.03125 a 3.0003,3.0003 0 0 0 -2.0313,0.96875 l -15.999999,17.00001 a 3.0003,3.0003 0 0 0 0,4.0937 l 15.999999,17.0001 a 3.0003,3.0003 0 1 0 4.375,-4.0938 L 24.125002,1002.4014 38.1875,987.43264 a 3.0003,3.0003 0 0 0 -2.3437,-5.0625 z m 27.9062,0 a 3.0003,3.0003 0 0 0 -1.9375,5.0625 l 14.062499,14.96876 -14.062499,14.9375 a 3.0003,3.0003 0 1 0 4.375,4.0938 l 15.999999,-17.0001 a 3.0003,3.0003 0 0 0 0,-4.0937 L 66.1875,983.33889 A 3.0003,3.0003 0 0 0 63.75,982.37014 z" fill="#000000" fill-opacity="1" stroke="none" marker="none" visibility="visible" display="inline" overflow="visible"/></g><text x="0" y="115" fill="#000000" font-size="5px" font-weight="bold" font-family="'Helvetica Neue', Helvetica, Arial-Unicode, Arial, Sans-serif">Created by Numero Uno</text><text x="0" y="120" fill="#000000" font-size="5px" font-weight="bold" font-family="'Helvetica Neue', Helvetica, Arial-Unicode, Arial, Sans-serif">from the Noun Project</text></svg>